<svg width="17" height="16" viewBox="0 0 17 16" fill="none" xmlns="http://www.w3.org/2000/svg">
<path fill-rule="evenodd" clip-rule="evenodd" d="M2.58334 8.00004C2.58334 4.73236 5.23233 2.08337 8.50001 2.08337C9.44595 2.08337 10.338 2.30481 11.1292 2.69799C11.5001 2.88233 11.9503 2.73106 12.1346 2.36013C12.3189 1.98919 12.1677 1.53905 11.7967 1.35472C10.8028 0.860763 9.68272 0.583374 8.50001 0.583374C4.4039 0.583374 1.08334 3.90393 1.08334 8.00004C1.08334 12.0962 4.4039 15.4167 8.50001 15.4167C12.5961 15.4167 15.9167 12.0962 15.9167 8.00004C15.9167 7.72208 15.9014 7.44742 15.8714 7.17689C15.8259 6.76519 15.4553 6.46833 15.0436 6.51384C14.6319 6.55935 14.335 6.93 14.3805 7.34171C14.4044 7.5576 14.4167 7.77725 14.4167 8.00004C14.4167 11.2677 11.7677 13.9167 8.50001 13.9167C5.23233 13.9167 2.58334 11.2677 2.58334 8.00004ZM15.697 3.19704C15.9899 2.90414 15.9899 2.42927 15.697 2.13638C15.4041 1.84348 14.9292 1.84348 14.6363 2.13638L8.50001 8.27271L7.03034 6.80304C6.73745 6.51015 6.26257 6.51015 5.96968 6.80304C5.67679 7.09594 5.67679 7.57081 5.96968 7.8637L7.96968 9.8637C8.26257 10.1566 8.73745 10.1566 9.03034 9.8637L15.697 3.19704Z" fill="white"/>
</svg>
