<svg width="16" height="16" viewBox="0 0 16 16" fill="none" xmlns="http://www.w3.org/2000/svg">
<path fill-rule="evenodd" clip-rule="evenodd" d="M5.05669 0.871687C6.05735 1.04713 6.97168 1.38223 8 1.997C9.02832 1.38223 9.94265 1.04713 10.9433 0.871687C12.0177 0.683313 13.1778 0.683329 14.6211 0.68335L14.6667 0.683351C15.0257 0.683351 15.3167 0.974365 15.3167 1.33335V7.37145V7.39591C15.3167 7.90411 15.3167 8.32085 15.2918 8.65919C15.2662 9.00832 15.2114 9.32908 15.072 9.63062C14.8418 10.1283 14.5393 10.472 14.0747 10.7634C13.7833 10.9461 13.4358 11.0425 13.0544 11.1158C12.6733 11.1891 12.1852 11.2514 11.5757 11.3293L11.5531 11.3322C10.4648 11.4712 9.53429 11.7864 8.35149 12.5468C8.13738 12.6844 7.86262 12.6844 7.64851 12.5468C6.46571 11.7864 5.53516 11.4712 4.4469 11.3322L4.42433 11.3293C3.81485 11.2514 3.32667 11.1891 2.9456 11.1158C2.56417 11.0425 2.21667 10.9461 1.9253 10.7634C1.46075 10.472 1.15819 10.1283 0.928038 9.63062C0.788608 9.32908 0.733799 9.00832 0.708165 8.65919C0.683323 8.32085 0.683328 7.90412 0.683335 7.39592V7.39592L0.683335 7.37144V1.33335C0.683335 1.16096 0.751817 0.99563 0.873715 0.873731C0.995614 0.751832 1.16094 0.68335 1.33333 0.683351L1.37894 0.68335C2.82225 0.68333 3.98226 0.683314 5.05669 0.871687ZM4.8322 2.15216C5.66666 2.29846 6.43721 2.57493 7.35 3.12301V10.8759C6.42542 10.4083 5.56688 10.1647 4.61163 10.0426C3.97442 9.96125 3.52704 9.90379 3.191 9.8392C2.85062 9.77377 2.69743 9.71311 2.61603 9.66206C2.36497 9.50459 2.23238 9.35399 2.10799 9.085C2.06274 8.98713 2.02521 8.84371 2.00468 8.564C1.98374 8.27892 1.98333 7.91011 1.98333 7.37144V1.98405C3.14675 1.98773 4.0247 2.01058 4.8322 2.15216ZM11.3884 10.0426C10.4331 10.1647 9.57458 10.4083 8.65 10.8759V3.12301C9.56279 2.57493 10.3333 2.29846 11.1678 2.15216C11.9753 2.01058 12.8533 1.98773 14.0167 1.98405V7.37145C14.0167 7.91011 14.0163 8.27892 13.9953 8.564C13.9748 8.84371 13.9373 8.98713 13.892 9.085C13.7676 9.35399 13.635 9.50459 13.384 9.66206C13.3026 9.71311 13.1494 9.77377 12.809 9.8392C12.473 9.90379 12.0256 9.96125 11.3884 10.0426ZM2 12.35C1.64102 12.35 1.35 12.641 1.35 13C1.35 13.359 1.64102 13.65 2 13.65C3.3106 13.65 4.24396 13.7327 5.07897 13.9604C5.90715 14.1863 6.67606 14.5653 7.63945 15.2075C7.85778 15.3531 8.14222 15.3531 8.36056 15.2075C9.32394 14.5653 10.0929 14.1863 10.921 13.9604C11.756 13.7327 12.6894 13.65 14 13.65C14.359 13.65 14.65 13.359 14.65 13C14.65 12.641 14.359 12.35 14 12.35C12.6439 12.35 11.5773 12.434 10.579 12.7063C9.69209 12.9481 8.88882 13.3303 8 13.8916C7.11118 13.3303 6.30791 12.9481 5.42103 12.7063C4.42271 12.434 3.35607 12.35 2 12.35Z" fill="white"/>
</svg>
