<svg width="16" height="16" viewBox="0 0 16 16" fill="none" xmlns="http://www.w3.org/2000/svg">
<path fill-rule="evenodd" clip-rule="evenodd" d="M9.95577 0.141223L9.88286 0.12329C9.5006 0.0288618 9.06953 -0.0776214 8.56055 0.0819316C8.33103 0.153879 8.12296 0.281224 7.9618 0.407807C7.80063 0.53439 7.62761 0.706358 7.50332 0.912287C7.22628 1.37133 7.22825 1.88553 7.23003 2.35127L7.23032 2.46108V4.48557L7.23032 4.51858V4.5186C7.2303 5.09791 7.23029 5.58144 7.26257 5.97647C7.29623 6.38847 7.36902 6.77528 7.55539 7.14106C7.84133 7.70225 8.2976 8.15852 8.85879 8.44446C9.22457 8.63083 9.61138 8.70362 10.0234 8.73728C10.4184 8.76955 10.9019 8.76955 11.4812 8.76953H11.4812H11.5143H13.5388L13.6486 8.76982C14.1143 8.7716 14.6285 8.77357 15.0876 8.49653C15.2935 8.37224 15.4655 8.19922 15.592 8.03805C15.7186 7.87688 15.846 7.66882 15.9179 7.4393C16.0775 6.93032 15.971 6.49925 15.8766 6.11699L15.8586 6.04409C15.1495 3.13685 12.863 0.850315 9.95577 0.141223ZM9.03227 1.64275C9.04267 1.63691 9.04913 1.63396 9.05142 1.63295C9.07348 1.62621 9.08868 1.62355 9.13625 1.62869C9.21908 1.63765 9.32823 1.66267 9.57028 1.72171C11.8873 2.28685 13.713 4.11255 14.2781 6.42958C14.3372 6.67162 14.3622 6.78077 14.3712 6.8636C14.3763 6.91117 14.3736 6.92637 14.3669 6.94843C14.3659 6.95072 14.3629 6.95718 14.3571 6.96758C14.3467 6.98613 14.3316 7.0091 14.3127 7.03321C14.2937 7.05732 14.275 7.07742 14.2594 7.09194C14.2513 7.09952 14.2459 7.10385 14.2436 7.10564C14.2401 7.10755 14.2358 7.10936 14.2282 7.11167C14.2154 7.11552 14.1881 7.12221 14.1347 7.12809C14.0118 7.14159 13.846 7.14271 13.5388 7.14271H11.5143C10.8935 7.14271 10.4768 7.14208 10.1559 7.11586C9.84446 7.09042 9.69557 7.045 9.59735 6.99495C9.34227 6.86498 9.13487 6.65759 9.0049 6.4025C8.95485 6.30428 8.90943 6.15539 8.88399 5.84399C8.85777 5.5231 8.85714 5.1064 8.85714 4.48557V2.46108C8.85714 2.15388 8.85826 1.988 8.87176 1.86519C8.87764 1.81177 8.88433 1.78443 8.88818 1.77169C8.89049 1.76403 8.8923 1.75979 8.89421 1.75624C8.896 1.75393 8.90033 1.74854 8.90791 1.74042C8.92243 1.72487 8.94253 1.70613 8.96664 1.6872C8.99075 1.66826 9.01372 1.65317 9.03227 1.64275ZM6.11837 1.833C6.54696 1.69838 6.78528 1.24182 6.65067 0.813224C6.51605 0.384632 6.05948 0.146315 5.63089 0.280928C2.3682 1.30568 0 4.35335 0 7.95627C0 12.3987 3.6013 16 8.04373 16C11.6466 16 14.6943 13.6318 15.7191 10.3691C15.8537 9.94052 15.6154 9.48395 15.1868 9.34933C14.7582 9.21472 14.3016 9.45304 14.167 9.88163C13.3491 12.4858 10.9158 14.3732 8.04373 14.3732C4.49977 14.3732 1.62682 11.5002 1.62682 7.95627C1.62682 5.08424 3.51423 2.65091 6.11837 1.833Z" fill="white"/>
</svg>
