<svg width="16" height="16" viewBox="0 0 16 16" fill="none" xmlns="http://www.w3.org/2000/svg">
<g clip-path="url(#clip0_910_44)">
<path fill-rule="evenodd" clip-rule="evenodd" d="M8.12998 14.4775C8.51427 15.15 9.48424 15.1491 9.86734 14.4759L10.9512 12.5714H13.7143C14.0145 12.5715 14.3117 12.5124 14.5891 12.3975C14.8664 12.2827 15.1184 12.1143 15.3306 11.9021C15.5429 11.6898 15.7113 11.4378 15.8261 11.1605C15.941 10.8831 16.0001 10.5859 16 10.2857V2.28571C16.0001 1.98552 15.941 1.68826 15.8262 1.4109C15.7114 1.13355 15.543 0.881536 15.3307 0.669269C15.1185 0.457003 14.8665 0.288642 14.5891 0.173806C14.3117 0.0589703 14.0145 -9.00236e-05 13.7143 0H2.28571C1.98552 -9.00236e-05 1.68826 0.0589703 1.4109 0.173806C1.13355 0.288642 0.881536 0.457003 0.669269 0.669269C0.457003 0.881536 0.288642 1.13355 0.173806 1.4109C0.0589703 1.68826 -9.00236e-05 1.98552 0 2.28571V10.2857C-5.24713e-05 10.5859 0.0590334 10.8831 0.173883 11.1605C0.288732 11.4378 0.457095 11.6898 0.669353 11.9021C0.881612 12.1143 1.13361 12.2827 1.41095 12.3975C1.68829 12.5124 1.98554 12.5715 2.28571 12.5714L7 12.5L8.12998 14.4775ZM8.62367 13.3842L7.42857 11.4286H2.28571C2.13556 11.4288 1.98683 11.3994 1.84806 11.3421C1.70929 11.2848 1.5832 11.2006 1.47702 11.0944C1.37085 10.9882 1.28667 10.8621 1.22933 10.7234C1.17199 10.5846 1.1426 10.4359 1.14286 10.2857V2.28571C1.1426 2.13556 1.17199 1.98683 1.22933 1.84806C1.28667 1.70929 1.37085 1.5832 1.47702 1.47702C1.5832 1.37085 1.70929 1.28667 1.84806 1.22933C1.98683 1.17199 2.13556 1.1426 2.28571 1.14286H13.7143C13.8644 1.1426 14.0132 1.17199 14.1519 1.22933C14.2907 1.28667 14.4168 1.37085 14.523 1.47702C14.6292 1.5832 14.7133 1.70929 14.7707 1.84806C14.828 1.98683 14.8574 2.13556 14.8571 2.28571V10.2857C14.8574 10.4359 14.828 10.5846 14.7707 10.7234C14.7133 10.8621 14.6292 10.9882 14.523 11.0944C14.4168 11.2006 14.2907 11.2848 14.1519 11.3421C14.0132 11.3994 13.8644 11.4288 13.7143 11.4286H10.4093C10.3336 11.4286 10.2643 11.4714 10.2304 11.5391L9.32275 13.3545C9.18225 13.6355 8.7875 13.6523 8.62367 13.3842ZM5.71429 3.42863C5.48825 3.42863 5.26729 3.49565 5.07935 3.62123C4.89141 3.74681 4.74492 3.9253 4.65842 4.13413C4.57192 4.34296 4.54929 4.57275 4.59339 4.79444C4.63749 5.01614 4.74633 5.21977 4.90616 5.37961C5.066 5.53944 5.26963 5.64828 5.49133 5.69238C5.71302 5.73648 5.94281 5.71385 6.15164 5.62735C6.36047 5.54085 6.53896 5.39436 6.66454 5.20642C6.79012 5.01848 6.85714 4.79752 6.85714 4.57148C6.85863 4.42099 6.83008 4.27171 6.77317 4.13238C6.71626 3.99306 6.63213 3.86648 6.52571 3.76006C6.41929 3.65364 6.29271 3.56951 6.15339 3.5126C6.01406 3.45569 5.86478 3.42714 5.71429 3.42863ZM9.65078 3.62123C9.83872 3.49565 10.0597 3.42863 10.2857 3.42863C10.4362 3.42714 10.5855 3.45569 10.7248 3.5126C10.8641 3.56951 10.9907 3.65364 11.0971 3.76006C11.2036 3.86648 11.2877 3.99306 11.3446 4.13238C11.4015 4.27171 11.4301 4.42099 11.4286 4.57148C11.4286 4.79752 11.3615 5.01848 11.236 5.20642C11.1104 5.39436 10.9319 5.54085 10.7231 5.62735C10.5142 5.71385 10.2844 5.73648 10.0628 5.69238C9.84106 5.64828 9.63742 5.53944 9.47759 5.37961C9.31776 5.21977 9.20891 5.01614 9.16482 4.79444C9.12072 4.57275 9.14335 4.34296 9.22985 4.13413C9.31635 3.9253 9.46284 3.74681 9.65078 3.62123ZM6.10842 9.23987C6.69007 9.55185 7.33996 9.71485 8 9.7143C8.66003 9.71485 9.30992 9.55185 9.89157 9.23987C10.4732 8.92788 10.9685 8.47664 11.3331 7.92647L10.3811 7.29367C10.1205 7.68657 9.76662 8.00886 9.35115 8.23181C8.93569 8.45475 8.4715 8.57143 8 8.57143C7.52849 8.57143 7.06431 8.45475 6.64884 8.23181C6.23337 8.00886 5.87952 7.68657 5.61885 7.29367L4.66685 7.92647C5.03149 8.47664 5.52677 8.92788 6.10842 9.23987Z" fill="white"/>
</g>
<defs>
<clipPath id="clip0_910_44">
<rect width="16" height="16" fill="white"/>
</clipPath>
</defs>
</svg>
