<svg width="17" height="16" viewBox="0 0 17 16" fill="none" xmlns="http://www.w3.org/2000/svg">
<g clip-path="url(#clip0_955_77)">
<path fill-rule="evenodd" clip-rule="evenodd" d="M4.70957 5.56796e-07L4.68011 2.9611e-07C4.09279 -8.63237e-06 3.60916 -1.59324e-05 3.21542 0.0321541C2.80681 0.0655382 2.43284 0.137078 2.08206 0.315809C1.53686 0.593601 1.0936 1.03686 0.815809 1.58206C0.637078 1.93284 0.565538 2.30681 0.532154 2.71541C0.499984 3.10916 0.499991 3.59279 0.5 4.18011L0.500001 4.20957V11.7904L0.5 11.8199C0.499991 12.4072 0.499984 12.8908 0.532154 13.2846C0.565538 13.6932 0.637078 14.0672 0.815809 14.4179C1.0936 14.9631 1.53686 15.4064 2.08206 15.6842C2.43284 15.8629 2.80681 15.9345 3.21541 15.9678C3.60916 16 4.09279 16 4.68011 16H4.70957H5.00114H5.03059C5.21262 16 5.3847 16 5.54722 15.9991C5.55949 15.9997 5.57185 16 5.58428 16H12.5091H12.5335C13.0222 16 13.4247 16 13.754 15.9775C14.0952 15.9543 14.4094 15.9045 14.7113 15.7794C15.4213 15.4854 15.9854 14.9213 16.2794 14.2113C16.4045 13.9094 16.4543 13.5952 16.4775 13.254C16.5 12.9247 16.5 12.5223 16.5 12.0336V12.0335V12.0091V11.6446L16.5 11.5458C16.5003 10.9645 16.5006 10.5363 16.4013 10.1658C16.1333 9.16589 15.3523 8.38488 14.3524 8.11695C14.2948 8.10152 14.2358 8.08849 14.1751 8.07749L14.2529 7.98332L14.3144 7.90896C14.6802 7.46657 14.9506 7.13958 15.1107 6.7871C15.4963 5.93791 15.4496 4.95501 14.9851 4.14623C14.7924 3.81052 14.4922 3.51067 14.086 3.10498L14.0177 3.03678L13.9427 2.96166C13.5014 2.51994 13.1762 2.19441 12.8151 1.99521C11.9438 1.51448 10.8868 1.51452 10.0155 1.99532C9.73727 2.14885 9.48036 2.37738 9.17523 2.67629C9.14048 2.2829 9.06791 1.92161 8.8949 1.58206C8.6171 1.03686 8.17384 0.593601 7.62865 0.315809C7.27787 0.137078 6.90389 0.0655382 6.49529 0.0321541C6.10155 -1.59324e-05 5.61792 -8.63237e-06 5.0306 2.9611e-07L5.00114 5.56796e-07H4.70957ZM9.21071 4.64946L9.81808 4.04206C10.3678 3.49226 10.5415 3.3285 10.7022 3.23982C11.1461 2.99488 11.6846 2.99486 12.1285 3.23976C12.2892 3.32843 12.4629 3.49218 13.0127 4.04192C13.517 4.54613 13.6665 4.70435 13.7525 4.85405C13.9891 5.26607 14.0129 5.7668 13.8164 6.1994C13.7451 6.35658 13.6112 6.52828 13.157 7.07805L9.21071 11.8552C9.21071 11.8435 9.21071 11.8317 9.21071 11.8199V11.7904V4.64946ZM8.89133 14.4249C8.86456 14.4771 8.83628 14.5283 8.80653 14.5786L12.5091 14.5786C13.0283 14.5786 13.3821 14.5782 13.6572 14.5594C13.926 14.5411 14.0675 14.5076 14.1674 14.4662C14.5291 14.3164 14.8164 14.0291 14.9662 13.6674C15.0076 13.5675 15.0411 13.426 15.0594 13.1572C15.0782 12.8821 15.0786 12.5283 15.0786 12.0091V11.6446C15.0786 10.921 15.0725 10.6986 15.0283 10.5337C14.8918 10.0243 14.4939 9.62642 13.9845 9.48993C13.8338 9.44955 13.6351 9.44097 13.0497 9.43979L9.04793 14.2841C9.00176 14.34 8.94884 14.387 8.89133 14.4249ZM7.78929 4.35509V4.20957C7.78929 3.58548 7.78874 3.16016 7.76186 2.83116C7.73566 2.51046 7.68802 2.34437 7.62841 2.22737C7.48689 1.94962 7.26108 1.72381 6.98334 1.5823C6.86634 1.52268 6.70024 1.47505 6.37954 1.44885C6.05055 1.42197 5.62523 1.42141 5.00114 1.42141H4.70957C4.08548 1.42141 3.66016 1.42197 3.33116 1.44885C3.01046 1.47505 2.84437 1.52268 2.72737 1.5823C2.44962 1.72381 2.22381 1.94962 2.0823 2.22737C2.02268 2.34437 1.97505 2.51046 1.94885 2.83116C1.92197 3.16016 1.92141 3.58548 1.92141 4.20957V11.7904C1.92141 12.4145 1.92197 12.8398 1.94885 13.1688C1.97505 13.4895 2.02268 13.6556 2.0823 13.7726C2.22381 14.0504 2.44962 14.2762 2.72737 14.4177C2.84437 14.4773 3.01046 14.525 3.33116 14.5512C3.66016 14.578 4.08548 14.5786 4.70957 14.5786H5.00114C5.62522 14.5786 6.05055 14.578 6.37954 14.5512C6.70024 14.525 6.86634 14.4773 6.98334 14.4177C7.26108 14.2762 7.48689 14.0504 7.62841 13.7726C7.68802 13.6556 7.73566 13.4895 7.76186 13.1688C7.78874 12.8398 7.78929 12.4145 7.78929 11.7904V4.35509ZM5.58428 11.6446C5.58428 12.0472 5.25793 12.3736 4.85535 12.3736C4.45278 12.3736 4.12642 12.0472 4.12642 11.6446C4.12642 11.2421 4.45278 10.9157 4.85535 10.9157C5.25793 10.9157 5.58428 11.2421 5.58428 11.6446Z" fill="white"/>
</g>
<defs>
<clipPath id="clip0_955_77">
<rect width="16" height="16" fill="white" transform="translate(0.5)"/>
</clipPath>
</defs>
</svg>
