<svg width="16" height="16" viewBox="0 0 16 16" fill="none" xmlns="http://www.w3.org/2000/svg">
<g clip-path="url(#clip0_912_24)">
<path fill-rule="evenodd" clip-rule="evenodd" d="M1.34665 6.80328C1.34665 3.78967 3.78967 1.34665 6.80328 1.34665C9.81689 1.34665 12.2599 3.78967 12.2599 6.80328C12.2599 9.81689 9.81689 12.2599 6.80328 12.2599C3.78967 12.2599 1.34665 9.81689 1.34665 6.80328ZM6.80328 0C3.04593 0 0 3.04593 0 6.80328C0 10.5606 3.04593 13.6066 6.80328 13.6066C8.43969 13.6066 9.94115 13.0288 11.1148 12.0662L14.8506 15.8019C15.1135 16.0648 15.5398 16.0648 15.8028 15.8019C16.0657 15.5389 16.0657 15.1126 15.8028 14.8497L12.067 11.1138C13.0291 9.94031 13.6066 8.43923 13.6066 6.80328C13.6066 3.04593 10.5606 0 6.80328 0ZM4.27713 8.82328C4.14491 9.14615 4.38237 9.5 4.73127 9.5C4.93351 9.5 5.11503 9.37594 5.18849 9.18751L5.6381 8.03429H8.36191L8.81126 9.18688C8.88487 9.37569 9.06676 9.5 9.26941 9.5C9.61844 9.5 9.85636 9.14651 9.72496 8.82315L7.77016 4.0125C7.64425 3.70265 7.34316 3.5 7.00871 3.5C6.67508 3.5 6.37455 3.70168 6.24811 4.01043L4.27713 8.82328ZM7 4.58L8.07619 7.31429H5.92381L7 4.58Z" fill="white"/>
</g>
<defs>
<clipPath id="clip0_912_24">
<rect width="16" height="16" fill="white"/>
</clipPath>
</defs>
</svg>
