<svg width="17" height="16" viewBox="0 0 17 16" fill="none" xmlns="http://www.w3.org/2000/svg">
<g clip-path="url(#clip0_956_30)">
<path d="M10.3673 14.4759C9.98424 15.1491 9.01427 15.15 8.62998 14.4775L7.5 12.5L7.92857 11.4286L9.12367 13.3842C9.2875 13.6523 9.68225 13.6355 9.82275 13.3545L10.7304 11.5391C10.7643 11.4714 10.8336 11.4286 10.9093 11.4286H14.2143C14.3644 11.4288 14.5132 11.3994 14.6519 11.3421C14.7907 11.2848 14.9168 11.2006 15.023 11.0944C15.1292 10.9882 15.2133 10.8621 15.2707 10.7234C15.328 10.5846 15.3574 10.4359 15.3571 10.2857V2.28571C15.3574 2.13556 15.328 1.98683 15.2707 1.84806C15.2133 1.70929 15.1292 1.5832 15.023 1.47702C14.9168 1.37085 14.7907 1.28667 14.6519 1.22933C14.5132 1.17199 14.3644 1.1426 14.2143 1.14286H2.78571C2.63556 1.1426 2.48683 1.17199 2.34806 1.22933C2.20929 1.28667 2.0832 1.37085 1.97702 1.47702C1.87085 1.5832 1.78667 1.70929 1.72933 1.84806C1.67199 1.98683 1.6426 2.13556 1.64286 2.28571V10.2857C1.6426 10.4359 1.67199 10.5846 1.72933 10.7234C1.78667 10.8621 1.87085 10.9882 1.97702 11.0944C2.0832 11.2006 2.20929 11.2848 2.34806 11.3421C2.48683 11.3994 2.63556 11.4288 2.78571 11.4286H7.92857L7.5 12.5L2.78571 12.5714C2.48554 12.5715 2.18829 12.5124 1.91095 12.3975C1.63361 12.2827 1.38161 12.1143 1.16935 11.9021C0.957095 11.6898 0.788732 11.4378 0.673883 11.1605C0.559033 10.8831 0.499948 10.5859 0.5 10.2857V2.28571C0.49991 1.98552 0.55897 1.68826 0.673806 1.4109C0.788642 1.13355 0.957003 0.881536 1.16927 0.669269C1.38154 0.457003 1.63355 0.288642 1.9109 0.173806C2.18826 0.0589703 2.48552 -8.99945e-05 2.78571 1.02928e-07H14.2143C14.5145 -8.99945e-05 14.8117 0.0589703 15.0891 0.173806C15.3665 0.288642 15.6185 0.457003 15.8307 0.669269C16.043 0.881536 16.2114 1.13355 16.3262 1.4109C16.441 1.68826 16.5001 1.98552 16.5 2.28571V10.2857C16.5001 10.5859 16.441 10.8831 16.3261 11.1605C16.2113 11.4378 16.0429 11.6898 15.8306 11.9021C15.6184 12.1143 15.3664 12.2827 15.0891 12.3975C14.8117 12.5124 14.5145 12.5715 14.2143 12.5714H11.4512L10.3673 14.4759Z" fill="white"/>
<path d="M6.21429 3.30005C5.2675 3.30005 4.5 4.05183 4.5 5.01433C4.5 5.97683 5.2675 6.72862 6.21429 6.72862C6.41571 6.72862 6.60625 6.68746 6.78571 6.62364V6.72862C6.78571 7.35898 6.27321 7.87148 5.64286 7.87148C5.32732 7.87148 5.07143 8.12737 5.07143 8.44291C5.07143 8.75844 5.32732 9.01433 5.64286 9.01433C6.90321 9.01433 7.92857 7.98898 7.92857 6.72862V5.01433C7.92857 4.05183 7.16071 3.30005 6.21429 3.30005ZM12.5 5.01433C12.5 4.06755 11.7325 3.30005 10.7857 3.30005C9.83893 3.30005 9.07143 4.06755 9.07143 5.01433C9.07143 5.96112 9.83893 6.72862 10.7857 6.72862C10.9871 6.72862 11.1777 6.68746 11.3571 6.62364V6.72862C11.3571 7.35898 10.8446 7.87148 10.2143 7.87148C9.89875 7.87148 9.64286 8.12737 9.64286 8.44291C9.64286 8.75844 9.89875 9.01433 10.2143 9.01433C11.4746 9.01433 12.5 7.98898 12.5 6.72862V5.01433Z" fill="white"/>
</g>
<defs>
<clipPath id="clip0_956_30">
<rect width="16" height="16" fill="white" transform="translate(0.5)"/>
</clipPath>
</defs>
</svg>
