<svg width="17" height="16" viewBox="0 0 17 16" fill="none" xmlns="http://www.w3.org/2000/svg">
<path fill-rule="evenodd" clip-rule="evenodd" d="M1.31148 7.60109C1.31148 4.67972 3.67972 2.31148 6.60109 2.31148C8.49334 2.31148 10.1541 3.30461 11.0899 4.80119C11.2819 5.10826 11.6864 5.20155 11.9935 5.00956C12.3006 4.81756 12.3939 4.41299 12.2019 4.10592C11.0365 2.24211 8.96412 1 6.60109 1C2.95541 1 0 3.95541 0 7.60109C0 8.5895 0.217859 9.52879 0.608544 10.3722C0.908571 11.0198 1.03479 11.2999 0.920012 11.6993C0.897878 11.7763 0.865052 11.8475 0.810741 11.9653C0.793206 12.0033 0.773432 12.0462 0.751055 12.0957C0.675268 12.2633 0.566305 12.5169 0.542434 12.8075C0.475765 13.6193 1.1906 14.277 1.99399 14.1432C2.4092 14.074 2.77325 13.8852 3.00883 13.7631C3.0622 13.7354 3.10897 13.7112 3.14826 13.6925C3.37698 13.5838 3.5377 13.5393 3.79074 13.5988C3.79048 13.5987 3.79058 13.5988 3.79107 13.5989C3.79388 13.5997 3.80945 13.6039 3.84491 13.6153C3.88336 13.6276 3.93477 13.6449 4.00266 13.6685C4.13865 13.7157 4.32626 13.7828 4.58252 13.8744L4.80338 13.257L4.58252 13.8745C4.85057 13.9703 5.12705 14.0451 5.41611 14.0989C5.77216 14.1651 6.11447 13.9301 6.18067 13.574C6.24687 13.218 6.01191 12.8757 5.65585 12.8095C5.43473 12.7684 5.22583 12.7117 5.02424 12.6396L4.92774 12.6051C4.50386 12.4534 4.22604 12.3539 4.09098 12.3222L3.94102 12.9598L4.09097 12.3222C3.44155 12.1694 2.96386 12.3281 2.58533 12.508C2.47492 12.5604 2.38415 12.6068 2.30479 12.6473C2.1336 12.7347 2.0155 12.795 1.86791 12.8312C1.8823 12.7854 1.90654 12.7234 1.9461 12.6359C1.95552 12.6151 1.9667 12.5911 1.97906 12.5645C2.03918 12.4354 2.12751 12.2458 2.18047 12.0615C2.43493 11.1761 2.10356 10.4707 1.85082 9.9327C1.83292 9.89459 1.81541 9.85733 1.79854 9.8209C1.48618 9.14663 1.31148 8.39511 1.31148 7.60109ZM11.1475 5.89617C8.4676 5.89617 6.29508 8.0687 6.29508 10.7486C6.29508 13.4286 8.4676 15.6011 11.1475 15.6011C11.691 15.6011 12.1769 15.5232 12.6374 15.3585C12.8187 15.2936 12.95 15.2466 13.0449 15.2137C13.126 15.1856 13.162 15.1743 13.1725 15.1711L13.1725 15.1711C13.1744 15.1705 13.1754 15.1702 13.1758 15.17C13.1761 15.1699 13.176 15.1699 13.1756 15.17C13.2959 15.1418 13.3627 15.1564 13.5021 15.2226C13.5228 15.2325 13.5499 15.2466 13.5825 15.2637L13.5825 15.2637C13.7438 15.3478 14.0395 15.5021 14.3679 15.5568L14.4757 14.91L14.3679 15.5568C15.0589 15.6719 15.6738 15.1062 15.6165 14.408C15.5967 14.167 15.5069 13.9617 15.4527 13.8418C15.4335 13.7994 15.4178 13.7653 15.4048 13.737L15.4048 13.7369C15.3701 13.6618 15.3544 13.6276 15.3431 13.5882C15.2852 13.387 15.3342 13.2572 15.5526 12.7857C15.8399 12.1656 16 11.4749 16 10.7486C16 8.0687 13.8275 5.89617 11.1475 5.89617ZM7.60656 10.7486C7.60656 8.793 9.19191 7.20765 11.1475 7.20765C13.1032 7.20765 14.6885 8.793 14.6885 10.7486C14.6885 11.2805 14.5715 11.7834 14.3626 12.2345C14.3504 12.2607 14.3375 12.2881 14.3242 12.3164C14.1466 12.6927 13.8822 13.253 14.0826 13.9504C14.0941 13.9904 14.1068 14.0286 14.12 14.0645L14.065 14.0381C13.7758 13.9007 13.3919 13.7719 12.8752 13.8934C12.7686 13.9185 12.5624 13.9923 12.2757 14.095L12.2757 14.095L12.1957 14.1236C11.8946 14.2313 11.5604 14.2896 11.1475 14.2896C9.19191 14.2896 7.60656 12.7043 7.60656 10.7486Z" fill="white"/>
</svg>
