<svg width="16" height="16" viewBox="0 0 16 16" fill="none" xmlns="http://www.w3.org/2000/svg">
<path d="M13.7067 12.2933L10.5933 9.17998C11.2139 8.21098 11.4545 7.0469 11.2691 5.91129C11.0836 4.77567 10.4852 3.74861 9.58863 3.02734C8.6921 2.30607 7.5607 1.94145 6.41172 2.0035C5.26274 2.06555 4.17719 2.54991 3.36356 3.36354C2.54992 4.17718 2.06557 5.26272 2.00352 6.4117C1.94146 7.56068 2.30608 8.69208 3.02735 9.58861C3.74862 10.4851 4.77569 11.0836 5.9113 11.269C7.04691 11.4545 8.211 11.2138 9.18 10.5933L12.2933 13.7066C12.4808 13.8939 12.735 13.9991 13 13.9991C13.265 13.9991 13.5192 13.8939 13.7067 13.7066C13.8002 13.6143 13.8744 13.5042 13.9251 13.3829C13.9758 13.2616 14.0019 13.1314 14.0019 13C14.0019 12.8685 13.9758 12.7384 13.9251 12.6171C13.8744 12.4957 13.8002 12.3857 13.7067 12.2933ZM3.33333 6.66665C3.33333 6.00738 3.52883 5.36291 3.8951 4.81475C4.26137 4.26659 4.78197 3.83935 5.39106 3.58705C6.00014 3.33476 6.67036 3.26875 7.31697 3.39737C7.96357 3.52598 8.55752 3.84345 9.02369 4.30963C9.48987 4.7758 9.80733 5.36975 9.93595 6.01635C10.0646 6.66295 9.99856 7.33318 9.74627 7.94226C9.49397 8.55135 9.06673 9.07194 8.51857 9.43822C7.9704 9.80449 7.32594 9.99998 6.66667 9.99998C5.78261 9.99998 4.93477 9.64879 4.30964 9.02367C3.68452 8.39855 3.33333 7.55071 3.33333 6.66665Z" fill="white"/>
</svg>
