<svg width="17" height="16" viewBox="0 0 17 16" fill="none" xmlns="http://www.w3.org/2000/svg">
<g clip-path="url(#clip0_910_98)">
<path fill-rule="evenodd" clip-rule="evenodd" d="M8.60185 0.5C8.78372 0.5 8.95813 0.572245 9.08673 0.700841L12.0519 3.66604C12.3197 3.93383 12.3197 4.368 12.0519 4.63579L4.63657 12.0511C4.50798 12.1797 4.33356 12.252 4.1517 12.252H1.18571C1.00382 12.252 0.829378 12.1797 0.700777 12.0511C0.572175 11.9224 0.499952 11.748 0.5 11.5661L0.500787 8.60089C0.500835 8.41909 0.573076 8.24475 0.701628 8.11619L8.11698 0.700841C8.24558 0.572245 8.41999 0.5 8.60185 0.5ZM6.6733 4.08402L7.79765 5.20838C8.06544 5.47616 8.49961 5.47616 8.7674 5.20838C9.03519 4.94059 9.03519 4.50642 8.7674 4.23863L7.64304 3.11427L8.60185 2.15546L10.5973 4.15091L3.86767 10.8806H1.87161L1.87214 8.88518L6.6733 4.08402ZM0.5 14.7108C0.5 14.3321 0.807005 14.0251 1.18571 14.0251H15.8143C16.193 14.0251 16.5 14.3321 16.5 14.7108C16.5 15.0895 16.193 15.3965 15.8143 15.3965H1.18571C0.807005 15.3965 0.5 15.0895 0.5 14.7108Z" fill="white"/>
</g>
<defs>
<clipPath id="clip0_910_98">
<rect width="16" height="16" fill="white" transform="translate(0.5)"/>
</clipPath>
</defs>
</svg>
